<?xml version="1.0" encoding="utf-8"?>
<!-- Generator: Adobe Illustrator 27.5.0, SVG Export Plug-In . SVG Version: 6.00 Build 0)  -->
<svg version="1.1" xmlns="http://www.w3.org/2000/svg" xmlns:xlink="http://www.w3.org/1999/xlink" x="0px" y="0px"
	 viewBox="0 0 1122 1122" style="enable-background:new 0 0 1122 1122;" xml:space="preserve">
<g id="BG">
	<rect x="0" style="fill:#46C9D3;" width="1122" height="1122"/>
</g>
<g id="Alphabet_1_">
	<g>
		<linearGradient id="SVGID_1_" gradientUnits="userSpaceOnUse" x1="265.1224" y1="851.361" x2="763.8633" y2="851.361">
			<stop  offset="0" style="stop-color:#91C5C8"/>
			<stop  offset="1" style="stop-color:#9BBCE3"/>
		</linearGradient>
		<polygon style="fill:url(#SVGID_1_);" points="265.122,815.942 336.571,886.956 763.863,886.956 692.435,815.766 		"/>
		
			<linearGradient id="SVGID_00000135663141022660957210000000419009966549516730_" gradientUnits="userSpaceOnUse" x1="692.4347" y1="795.1346" x2="783.9686" y2="795.1346">
			<stop  offset="0" style="stop-color:#8AC8FA"/>
			<stop  offset="0.9949" style="stop-color:#D96569"/>
		</linearGradient>
		<polygon style="fill:url(#SVGID_00000135663141022660957210000000419009966549516730_);" points="712.527,702.459 
			783.969,773.901 763.863,887.81 692.435,816.406 		"/>
		
			<linearGradient id="SVGID_00000034803988756027693100000007216009838029956501_" gradientUnits="userSpaceOnUse" x1="479.3832" y1="511.033" x2="887.3132" y2="511.033">
			<stop  offset="0" style="stop-color:#8AC8FA"/>
			<stop  offset="0.9949" style="stop-color:#D96569"/>
		</linearGradient>
		<polygon style="fill:url(#SVGID_00000034803988756027693100000007216009838029956501_);" points="815.871,248.165 
			887.313,319.607 550.825,773.901 479.383,702.459 		"/>
		
			<linearGradient id="SVGID_00000147942132589342506930000004415979695169193649_" gradientUnits="userSpaceOnUse" x1="367.66" y1="396.5854" x2="672.1854" y2="396.5854">
			<stop  offset="0" style="stop-color:#91C5C8"/>
			<stop  offset="1" style="stop-color:#787FAF"/>
		</linearGradient>
		<polygon style="fill:url(#SVGID_00000147942132589342506930000004415979695169193649_);" points="367.66,361.093 439.164,432.078 
			672.185,432.078 600.868,361.428 		"/>
		<path style="fill:#FFFFFF;" d="M600.865,362.114H367.72l20.092-113.949h428.057L479.38,702.459h233.143l-20.092,113.948H265.126
			L600.865,362.114z"/>
	</g>
</g>
</svg>
